<?xml version="1.0" encoding="UTF-8"?><svg id="Layer_2" xmlns="http://www.w3.org/2000/svg" viewBox="0 0 433.77 632.9"><defs><style>.cls-1{fill:#fff;}</style></defs><g id="Layer_2-2"><path class="cls-1" d="m370.54,632.9c-1.91,0-4.09-.59-6.44-2.17-5.91-3.99-19.01-10.12-19.14-10.18l-.15-.08s-2.23-1.16-3.69,0c-4.94,3.9-12.12,5.93-17.49-.08-5.13-5.74-12.08-19.74-12.38-20.33-.06-.12-2.81-5.92-8.76-8.52-8.27-3.61-16.73-7.88-21.37-16.85-.89-1.71-1.66-3.49-2.42-5.21-3.06-7-5.7-13.04-14.73-13.97-12.27-1.26-16.38-1.53-16.69-1.55-.87-.04-4.05-.55-7.79-5.51-3.5-4.64-7.33-12.05-7.49-12.36l-.05-.1c-.14-.29-3.27-7.24.69-12.17,3.38-4.21,8.72-7.02,11.44-7.68,2.24-.54,12.65-1.26,14.72-1.4h.17s.08-.01.13-.02c-.95-2.59-2.84-5.39-2.86-5.42l-.21-.31-.11-.36c-.4-1.29-.38-3.09.84-4.31.74-.74,2.13-1.47,4.51-.74.45.14.94.31,1.45.48.96.33,2.82.96,3.78,1.02.43-7.12,1.43-10.73,3.47-12.43,2.01-1.69,8.34-4.97,9.05-5.34l.43-.17c.13-.04.28-.1.43-.17-2.12-2.97-9.67-13-13.76-18.4-.86-.92-4.89-5.67-5.91-14.67l-.03-.22.02-.23c.02-.53-.08-2.42-2.26-2.96-3.9-.98-21.23-7.65-26.12-14.1-3.84-5.05-15.69-17.82-17.29-19.54-1.22-.85-7.48-5.17-12.11-7.61-1.22-.64-3.26-1.64-5.63-2.79-8.16-3.98-20.49-10-25.22-14.13-5.23-4.57-10.04-8.34-10.87-8.99-.55-.3-2.77-1.22-5.18,1.23-1.46,1.49-2.29,2.79-3.02,3.93-1.25,1.95-2.54,3.97-5.92,4.62-3.74.71-6.23-.94-8.87-2.7-.99-.66-2.02-1.34-3.24-2-1.72-.93-3.42-1.06-5.05-1.18-2.13-.16-4.54-.34-6.28-2.46-1.15-1.4-10.12-7.78-18.13-13.14l-.38-.31c-1.05-1.03-4.38-3.59-7.32-3.19l-6.22,2.21c-1.05.57-3.4,1.22-6.57-1.59-.83-.74-3.03.05-4.01.64l-10.7,6.04c-2.36,2.09-6,3.17-8.71.71-1.5-1.36-1.77-2.84-1.72-3.85.1-2.21,1.73-3.77,2.37-4.3l6.08-6.36s1.55-1.37.91-2.27c-1.82-2.57-4.08-6.19-4.58-7.01-1.1-1.37-2.2-4.35-.13-7.91,1.95-3.35,6.24-8.32,6.42-8.53l.22-.25.27-.18c.08-.06.21-.2.28-.3-1.04-1.77-1.21-3.64-.49-5.2.71-1.54,2.21-2.6,4.1-2.9.5-.08,1.05-.89,1-1.21-1.17-1.19-4.73-3.12-8.11-3.98-.71-.18-1.55-.2-2.45-.23-2.59-.07-6.92-.19-8.05-5.93-.21-1.08-.7-1.24-1.13-1.3-1.29-.18-2.99.76-3.45,1.66-1.93,3.77-3.94,7.18-7.3,7.43-.16.06-.79.58-1.17.89-1.29,1.04-3.45,2.79-5.98,1.52-2.14-1.07-6.59-6.83-9.04-10.16l-1.06-1.44,3.69-5.3c.25-.34.08-.58-.2-.86-.93-.96-1.52-1.76-2.09-2.54-.79-1.07-1.53-2.07-3.3-3.6-1.21-1.05-1.97-1.22-3.36-1.53-1.5-.34-3.37-.76-6.01-2.37-5.44-3.32-6.58-6.1-7.18-11.48-.51-4.5-.73-14.03-.75-15.04-.04-.56-.05-2.24,1.01-3.52.66-.8,1.61-1.29,2.67-1.39.99-.09,2.07-.28,2.67-.39.35-2.48,2.1-6.54,6.77-7.63,2.75-.64,6.47-1.58,8.85-2.19-.96-4.79-2.43-15.41,1.78-21.79l.22-.29c.63-.71,6.25-7,7.99-8.42.39-.32.74-2.33-.46-4.03-.75-1.06-2.52-2.58-3.95-3.8-2.1-1.8-3.21-2.78-3.7-3.89-.36-.81-.44-1.8-.55-3.62-.08-1.32-.31-4.83-.97-5.54-2.13-1.7-2.6-3.68-3.01-5.42-.18-.77-.37-1.56-.7-2.44v-.02s-.1-.04-.2-.06c-1.67-.36-9.71-2.53-10.76-2.82-1.64-.33-4.5-2.02-4.76-6.44-.23-3.96-.97-5.86-2.81-7.28-2.01-1.55-5.28-5-7.67-7.61-.89-.97-1.34-2.23-1.26-3.55.08-1.32.67-2.52,1.66-3.39l14.57-12.65c1.33-.84,13.19-8.16,20.37-8.16,1.79,0,2.64-.27,2.99-.43l-.08-3.9c-.03-.67.18-3.27,4.47-5.46,4.16-2.13,6.37-4.03,6.59-5.65.39-3.02,1.29-6.79,4.78-9.15,1.96-1.33,10.22-7.17,12.4-8.71,1.16-2.37,5.1-10.18,8.15-13.16,3.14-3.07,15.04-14.97,15.17-15.09l.18-.17c.4-.34,2.42-2.27,1.05-5.02-2.28-4.55-8.6-14.16-8.67-14.26l-.19-.35c-.05-.1-1.12-2.51-1.53-5.58-.34-2.5-.38-6.51-.39-7.65-.35-1.75.2-4.72,4.14-6.81,3.1-1.65,10.07-7.04,12.12-12.07,2.2-5.38,3.15-8.98,3.16-9.02l.28-1.06.97-.52c.14-.07,13.34-7.1,17.57-9.54,1.86-1.55,5.89-3.38,9.3-.24,2.71,2.49,11.92,11.63,13.01,12.71.83.67,7.51,5.91,14.72,8.72,12.89,5.04,21.52,9.78,25.64,14.08,4.99,5.22,9.67,11.2,9.87,11.45l.28.35,3.52,11.07c1.44,2.17,4.33,5.54,6.57,6.05,2.21.5,3.75.16,5.39-.2,1-.22,2.04-.45,3.17-.45,1.05,0,2,.26,3.01.54,1.96.54,4.19,1.16,7.79-.23,5.58-2.15,11.36-7.96,11.42-8.02l.29-.25c.12-.09,3.02-2.22,7.93-3.59,3.23-.9,5.51-2.72,6.96-5.55,1.38-2.68,3.46-6.74,10.05-3.56.99.48,1.99,1.02,2.95,1.55,3.3,1.81,6.43,3.51,9.95,3.18,1.95-.19,4.25-.63,6.48-1.06,4.11-.79,7.98-1.54,10.77-.98,4.32.86,8.83,2.41,12.54,7.86,3.01,4.41,9.67,7.53,12.4,7.22,3.72-.41,19.29-2.11,21.46-2.34,1.39-.44,7.96-2.42,13.46-2.63,3.41-.13,5.29-.96,7.27-1.83,1.04-.46,2.11-.93,3.36-1.27.63-.17,1.28-.29,1.97-.42,3.09-.57,6.59-1.21,9.21-7.08,3.87-8.64,14.83-24.54,15.7-25.41-.03.03-.07.07-.1.12.07-.09.15-.21.25-.36.86-1.28,2.89-4.27,6.42-5.15,2.36-.59,5.65-4.3,5.92-5.85.4-2.32,1.41-9.26,1.59-10.49.03-2.48,1.49-5.01,4.32-5.21,3.17-.22,5,2.69,5.59,4.44l4.92,14.93c.08.29,1.94,7.07.46,13.05-.94,3.8-4.09,13.26-6.4,20.17-1.01,3.04-1.89,5.66-2.23,6.78l-.14.45c-1.26,4.07-5.08,16.45-2.15,26.65,1.9,6.59,4.87,13.23,7.05,18.07,1.68,3.74,2.79,6.21,3.08,7.79.59,3.19,1.94,9.1,3.31,15l.22.94c1.49,6.35,3.74,15.95-1.53,22.46-1.46,1.81-3.05,3.17-4.45,4.38-3.46,2.97-5.95,5.11-5.95,12.57,0,11.44-1.84,29.09-3.4,32.58-1.42,3.18-5.3,15.86-4.54,21.46.92,6.78,4.04,19.03,7.54,24.37.9,1.37,1.81,2.65,2.69,3.88,2.96,4.14,5.75,8.04,6.01,13.13.18,3.48,2.36,5.79,4.29,7.84.66.7,1.28,1.35,1.8,2.03.23.3.53.65.87,1.06,2.63,3.11,8.12,9.57,6.73,19.03-.79,5.39-3.63,12.78-6.13,19.31-1.78,4.64-3.8,9.9-3.77,11.42.08,4.35-1.57,27.81-1.64,28.81-.03.32-.66,6.06-5.02,10.84-3.06,3.36-3.06,12.31-3.05,16.61v.52c0,1.38.09,3.24.19,5.4.25,5.18.56,11.62-.15,16.38-.9,6.05-.5,15.46.92,21.42,1.4,5.89,2.21,14.46,2.34,15.94.16.61.86,3.01,2.29,5.21.21.32.44.65.67.98,1.99,2.87,5,7.2.9,13.65-1.23,1.93-2.68,3.34-3.96,4.59-2.8,2.72-5.01,4.88-4.69,12.11.11,2.56.26,4.63.4,6.46.48,6.6.71,9.61-2.85,15.27-3.56,5.67-3.32,9.88-3.11,13.6.23,4.03-.86,8.88-2.92,13.01-.91,1.82-.6,3.08.13,5.53.17.57.34,1.16.5,1.77.65,2.54.27,5.55-.07,8.22-.15,1.21-.3,2.35-.3,3.15s.31,1.92.64,3.07c.55,1.93,1.18,4.12.71,6.33-.69,3.28-5.9,15.59-8.85,20.92-2.16,3.9-2.07,7.96-1.96,13.1.03,1.19.05,2.41.05,3.69,0,6.48-2.35,20.52-4.21,23.26-1.26,1.85-7.85,11.62-7.85,11.62l-.16.21c-1.15,1.38-3.62,3.08-6.88,3.08Zm-23.39-16.84c1.16.54,13.68,6.43,19.75,10.53,3.78,2.55,6.05.68,6.63.08.84-1.25,6.59-9.77,7.75-11.49.92-1.65,3.34-13.84,3.34-20.45,0-1.23-.03-2.42-.05-3.58-.12-5.43-.23-10.55,2.59-15.64,3.06-5.53,7.83-17.13,8.33-19.53.21-1-.21-2.49-.62-3.93-.41-1.44-.84-2.92-.84-4.45,0-1.11.16-2.4.34-3.77.28-2.22.6-4.73.19-6.35-.14-.54-.3-1.07-.45-1.58-.77-2.59-1.65-5.52.19-9.2,1.66-3.33,2.59-7.33,2.41-10.44-.23-4.06-.55-9.56,3.86-16.58,2.69-4.28,2.56-5.97,2.1-12.25-.13-1.77-.29-3.97-.41-6.61-.41-9.47,3.1-12.89,6.2-15.91,1.19-1.16,2.31-2.25,3.23-3.69,2.32-3.64,1.01-5.51-.79-8.11-.26-.38-.52-.75-.75-1.11-2.14-3.29-2.97-6.8-3.01-6.94l-.06-.35c0-.09-.82-9.45-2.24-15.41-1.57-6.6-2-16.63-1-23.32.64-4.27.34-10.44.1-15.4-.11-2.22-.2-4.14-.2-5.64v-.51c0-7.35.32-15.56,4.36-19.99,3.21-3.51,3.73-7.86,3.73-7.9.01-.17,1.69-24.16,1.62-28.3-.04-2.37,1.46-6.39,4.1-13.29,2.41-6.28,5.14-13.4,5.85-18.24,1.06-7.22-3.1-12.13-5.59-15.07-.41-.48-.76-.9-1.03-1.25-.36-.47-.9-1.04-1.46-1.64-2.26-2.4-5.36-5.69-5.64-11.01-.19-3.63-2.35-6.66-5.08-10.49-.91-1.28-1.85-2.6-2.81-4.05-4.12-6.3-7.34-19.26-8.31-26.44-1.01-7.46,3.82-21.68,4.94-24.17.93-2.07,2.97-18.19,2.97-30.54,0-9.75,3.91-13.11,7.69-16.36,1.36-1.17,2.65-2.28,3.83-3.73,3.73-4.6,1.89-12.44.54-18.17l-.22-.96c-1.38-5.96-2.74-11.94-3.36-15.22-.18-.99-1.42-3.75-2.73-6.66-2.24-4.98-5.3-11.81-7.29-18.74-3.35-11.63.81-25.09,2.17-29.51l.13-.43c.36-1.18,1.2-3.7,2.27-6.9,2.15-6.44,5.4-16.18,6.29-19.78.96-3.87.04-8.81-.41-10.46l-4.87-14.76c-.04-.12-.11-.26-.18-.39v.11c-.06.33-1.21,8.21-1.65,10.8-.65,3.78-5.6,8.85-9.63,9.85-1.68.42-2.86,2.17-3.5,3.1-.24.35-.43.63-.66.88-.95,1.21-11.19,16.03-14.76,24.01-3.7,8.27-9.45,9.33-12.88,9.96-.58.11-1.13.21-1.56.32-.89.24-1.71.6-2.66,1.02-2.11.93-4.73,2.08-9.09,2.25-5.35.21-12.29,2.45-12.36,2.47l-.25.08-.26.03s-17.7,1.93-21.7,2.37c-5.2.57-13.35-3.89-17.08-9.37-2.84-4.16-6.06-5.11-9.39-5.77-1.82-.37-5.55.35-8.84.99-2.34.45-4.76.92-6.95,1.12-5.05.48-9.17-1.78-12.82-3.77-.95-.52-1.85-1.01-2.73-1.43-1.68-.81-2.17-.68-2.18-.68-.3.16-.94,1.41-1.25,2.01-2.09,4.08-5.48,6.8-10.07,8.08-3.43.96-5.64,2.34-6.17,2.7-1.08,1.07-6.94,6.66-13,9-5.14,1.98-8.62,1.02-10.92.38-.67-.19-1.31-.36-1.68-.36-.58,0-1.28.15-2.09.33-1.81.4-4.28.95-7.58.2-5.08-1.16-9.38-7.76-9.85-8.51l-.17-.27-3.44-10.84c-1.07-1.35-5.12-6.39-9.26-10.72-3.56-3.72-11.81-8.18-23.84-12.88-8.42-3.29-15.84-9.32-16.15-9.58l-.18-.16c-.1-.1-10.22-10.14-12.97-12.68-1.05-.96-2.51.22-2.79.47l-.41.3c-3.49,2.03-13.79,7.54-16.99,9.25-.45,1.52-1.43,4.57-3.06,8.57-2.71,6.64-11.02,12.81-14.4,14.6-1.22.65-1.53,1.23-1.56,1.45l.08.22v.42s0,4.75.35,7.29c.26,1.92.87,3.54,1.07,4.04.95,1.45,6.58,10.08,8.84,14.58,2.53,5.07-.31,9.38-2.25,11.04-1.04,1.04-12.1,12.1-15.13,15.06-2.35,2.29-6.15,9.68-7.42,12.33l-.28.59-.53.38c-.44.31-10.71,7.59-13.01,9.14-1.47,1-2.23,2.64-2.62,5.66-.59,4.48-5.26,7.41-9.27,9.46-1.15.59-1.59,1.07-1.74,1.27l.06,2.97c.21.98.11,2.28-.72,3.46-1.25,1.78-3.62,2.65-7.26,2.65-4.8,0-14.13,5.17-17.54,7.29l-14.01,12.2c3.09,3.39,5.62,5.9,6.93,6.91,3.78,2.91,4.52,6.98,4.75,10.95.08,1.36.55,1.73.75,1.82h.25s-.02.06-.02.06c2.5.68,9.27,2.49,10.62,2.78,2.27.49,3.47,2.04,3.85,3.3.43,1.14.66,2.15.86,2.96.37,1.55.52,2.07,1.29,2.69,2.35,1.88,2.61,5.89,2.81,9.11.04.63.09,1.47.16,1.88.41.47,1.52,1.42,2.36,2.14,1.72,1.47,3.67,3.14,4.78,4.72,2.48,3.52,2.27,8.55-.46,10.78-1.06.86-4.97,5.14-7.29,7.73-3.38,5.36-1.49,16.27-.47,20.05l.66,2.43-2.44.64c-.07.02-6.9,1.8-11.32,2.83-2.55.6-2.94,3.3-2.97,3.6l-.08.42c-.46,1.62-1.23,2.72-2.3,3.26-.46.23-.96.35-1.45.36-.5.1-1.44.27-2.45.39.03,1.29.26,10.38.72,14.51.44,3.86.79,5.32,4.82,7.77,1.94,1.18,3.19,1.47,4.51,1.77,1.58.36,3.37.76,5.52,2.63,2.2,1.9,3.18,3.24,4.06,4.42.52.7.97,1.31,1.66,2.03,2.61,2.71,1.75,5.89.49,7.47l-1.43,2.07c2.24,2.95,4.75,5.97,5.88,6.98.28-.19.63-.48.9-.69,1.03-.83,2.3-1.86,3.95-1.99.33-.09,1.23-.83,3.22-4.72,1.48-2.9,5.24-4.8,8.6-4.33,2.77.39,4.77,2.36,5.34,5.29.35,1.76.65,1.83,3.28,1.9,1.08.03,2.31.06,3.55.38,3.41.87,8.26,3.07,10.52,5.43,1.3,1.36,1.7,3.3,1.06,5.21-.75,2.23-2.72,3.97-4.91,4.32-.16.03-.26.06-.33.09.02.09.07.27.22.51,1.56,2.56.47,5.28-1.46,6.77-.82.96-4.19,4.97-5.7,7.56-.85,1.47-.33,2.22-.33,2.23l.3.39s2.57,4.19,4.5,6.9c2.25,3.17.74,6.8-1.65,8.89l-6.22,6.48c-.18.14-.4.4-.51.58,0,0,.01.01.02.02.51.46,1.96-.67,2.16-.86l.21-.2.27-.16,10.89-6.15c2.14-1.31,6.71-2.84,9.85-.07.57.5.95.7,1.14.78l7.28-2.55c5.6-1.01,10.66,3.37,11.72,4.36,3.2,2.14,16.87,11.38,19.03,14,.35.43,1.12.53,2.8.65,1.96.15,4.39.33,7.05,1.77,1.42.77,2.59,1.55,3.63,2.24,2.38,1.58,3.49,2.26,5.15,1.95,1.23-.24,1.51-.62,2.65-2.4.82-1.29,1.84-2.89,3.67-4.74,4.4-4.48,9.44-3.21,11.49-1.92l.2.14c.05.04,5.38,4.18,11.22,9.28,4.23,3.69,16.68,9.77,24.12,13.4,2.5,1.22,4.48,2.19,5.77,2.87,5.41,2.86,12.56,7.88,12.87,8.09l.21.15.18.19c.55.59,13.54,14.53,17.79,20.12,3.67,4.82,18.9,11.16,23.36,12.27,4.93,1.23,6.1,5.55,6.05,7.89.95,7.87,4.56,11.62,4.59,11.66l.23.26c.53.7,12.95,17.12,14.46,19.38.79,1.18.98,2.5.54,3.72-.73,2.04-2.91,2.98-3.88,3.31-2.54,1.32-6.79,3.66-7.95,4.64-.2.19-1.27,1.56-1.7,9.12-.12,2.05-1.12,3.14-1.94,3.69-2.13,1.43-4.96.67-7.58-.2.69,1.24,1.46,2.78,1.98,4.3.7,2.04.14,3.46-.46,4.29-1.32,1.85-3.71,2.04-4.4,2.06-4.62.31-12.4.92-13.81,1.26-1.65.4-6.03,2.62-8.71,5.95-1.89,2.35-.24,6.48-.06,6.91.39.75,3.93,7.5,7,11.57,2.11,2.8,3.64,3.4,4.02,3.51l.16-.03-.11.04s.01,0,.02,0c.37.02,4.41.28,16.9,1.56,11.94,1.23,15.58,9.58,18.8,16.94.72,1.65,1.46,3.35,2.27,4.92,3.89,7.51,11.48,11.31,18.93,14.56,7.75,3.38,11.13,10.65,11.28,10.96.03.07,6.91,13.91,11.59,19.15,3.6,4.03,8.22,1.41,10.66-.52,3.21-2.53,7.2-1.52,9.12-.49Zm-99.57-67.08h0s0,0,0,0c0,0,0,0,0,0Zm-183.26-176.68h0,0ZM27.49,197.26h0s0,0,0,0Zm17.02-56.5v.13s0-.08,0-.13Zm41.92-90.99h0s0,0,0,0Z"/><rect class="cls-1" x="397.61" y="0" width="15.18" height="15.18" rx="7.59" ry="7.59"/><rect class="cls-1" x="418.6" y="282.35" width="15.18" height="15.18" rx="7.59" ry="7.59"/></g></svg>