<?xml version="1.0" encoding="UTF-8"?>
<!DOCTYPE svg PUBLIC "-//W3C//DTD SVG 1.1//EN" "http://www.w3.org/Graphics/SVG/1.1/DTD/svg11.dtd">
<!-- Creator: CorelDRAW SE (OEM-Version) -->
<svg xmlns="http://www.w3.org/2000/svg" xml:space="preserve" width="210mm" height="297mm" version="1.1" style="shape-rendering:geometricPrecision; text-rendering:geometricPrecision; image-rendering:optimizeQuality; fill-rule:evenodd; clip-rule:evenodd"
viewBox="0 0 21000 29700"
 xmlns:xlink="http://www.w3.org/1999/xlink"
 xmlns:xodm="http://www.corel.com/coreldraw/odm/2003">
 <defs>
  <style type="text/css">
   <![CDATA[
    .fil0 {fill:#115092}
    .fil1 {fill:#FEFEFE;fill-rule:nonzero}
    .fil2 {fill:#FEFEFE;fill-rule:nonzero}
   ]]>
  </style>
 </defs>
 <g id="Ebene_x0020_1">
  <metadata id="CorelCorpID_0Corel-Layer"/>
  <path class="fil0" d="M8626.51 12733.33l3746.99 0c134.28,0 243.17,108.89 243.17,243.17l0 3746.99c0,134.27 -108.89,243.16 -243.17,243.16l-3746.99 0.01c-134.27,-0.01 -243.16,-108.9 -243.16,-243.18l-0.01 -3746.98c0.01,-134.28 108.9,-243.17 243.18,-243.17z"/>
  <g id="_2449755370400">
   <path class="fil1" d="M10500 13243.92c255.61,0 487.03,108.82 654.54,284.75 167.52,175.93 271.13,418.98 271.13,687.44 0,268.45 -103.61,511.5 -271.13,687.43 -55.64,58.44 -118.34,109.47 -186.63,151.56 179.33,70.75 340.29,180.96 473.24,320.58 240.85,252.97 389.84,694.38 389.84,1080.38l-218.85 0c0,-322.55 -124.48,-706.5 -325.73,-917.87 -201.25,-211.36 -479.3,-342.1 -786.41,-342.1 -307.12,0 -585.16,130.74 -786.41,342.1 -201.26,211.37 -325.74,595.32 -325.74,917.87l-218.84 0c0,-386 148.98,-827.41 389.85,-1080.38 132.94,-139.62 293.89,-249.83 473.22,-320.58 -68.29,-42.09 -130.99,-93.12 -186.63,-151.56 -167.51,-175.93 -271.13,-418.98 -271.13,-687.43 0,-268.46 103.62,-511.51 271.13,-687.44 167.52,-175.93 398.94,-284.75 654.55,-284.75zm499.81 447.26c-127.9,-134.33 -304.62,-217.42 -499.81,-217.42 -195.19,0 -371.91,83.09 -499.81,217.42 -127.91,134.33 -207.02,319.93 -207.02,524.93 0,204.99 79.11,390.59 207.02,524.92 127.9,134.33 304.62,217.43 499.81,217.43 195.19,0 371.91,-83.1 499.81,-217.43 127.9,-134.33 207.02,-319.93 207.02,-524.92 0,-205 -79.12,-390.6 -207.02,-524.93z"/>
   <rect class="fil2" x="10779.08" y="16075.26" width="545.25" height="283.79"/>
  </g>
 </g>
</svg>
