<?xml version="1.0" encoding="UTF-8"?>
<!DOCTYPE svg PUBLIC "-//W3C//DTD SVG 1.1//EN" "http://www.w3.org/Graphics/SVG/1.1/DTD/svg11.dtd">
<!-- Creator: CorelDRAW SE (OEM-Version) -->
<svg xmlns="http://www.w3.org/2000/svg" xml:space="preserve" width="210mm" height="297mm" version="1.1" style="shape-rendering:geometricPrecision; text-rendering:geometricPrecision; image-rendering:optimizeQuality; fill-rule:evenodd; clip-rule:evenodd"
viewBox="0 0 21000 29700"
 xmlns:xlink="http://www.w3.org/1999/xlink"
 xmlns:xodm="http://www.corel.com/coreldraw/odm/2003">
 <defs>
  <style type="text/css">
   <![CDATA[
    .fil0 {fill:#115092}
    .fil1 {fill:#FEFEFE;fill-rule:nonzero}
    .fil2 {fill:#F1F3F7;fill-rule:nonzero}
   ]]>
  </style>
 </defs>
 <g id="Ebene_x0020_1">
  <metadata id="CorelCorpID_0Corel-Layer"/>
  <path class="fil0" d="M8626.51 12733.33l3746.99 0c134.28,0 243.17,108.89 243.17,243.17l0 3746.99c0,134.27 -108.89,243.16 -243.17,243.16l-3746.99 0.01c-134.27,-0.01 -243.16,-108.9 -243.16,-243.18l-0.01 -3746.98c0.01,-134.28 108.9,-243.17 243.18,-243.17z"/>
  <g id="_2449706138000">
   <path class="fil1" d="M9262.56 13910.28l1978.01 0 -120.56 210.76 -1857.45 0c-42.95,0 -82.09,17.82 -110.52,46.51 -28.43,28.7 -46.09,68.2 -46.09,111.55l0 1290.03c0,43.35 17.66,82.85 46.09,111.55 28.44,28.7 67.57,46.51 110.52,46.51l202.72 0 226.86 358.54 226.85 -358.53 1478.04 -0.01c42.95,0 82.08,-17.81 110.52,-46.51 28.43,-28.7 46.08,-68.2 46.08,-111.55l0 -942.96 208.41 -364.33c0.26,5.72 0.4,11.48 0.4,17.26l0 1290.03c0,101.53 -41.08,193.77 -107.26,260.56 -66.17,66.79 -157.55,108.26 -258.15,108.26l-1364.65 0 -340.24 537.74 -340.23 -537.74 -89.35 0c-100.6,0 -191.98,-41.47 -258.16,-108.26 -66.17,-66.79 -107.26,-159.03 -107.26,-260.56l0 -1290.03c0,-101.53 41.09,-193.77 107.26,-260.56 66.18,-66.8 157.56,-108.26 258.16,-108.26z"/>
   <path class="fil1" d="M11974.71 13258.46c62.13,36.21 103.46,95.53 120,161.94 16.54,66.41 8.31,139.97 -28.69,204.65l-875.69 1530.85 -500.36 348.52 48.85 -611.62 875.69 -1530.86c37,-64.68 96.01,-108.65 161.25,-127.4 65.26,-18.75 136.83,-12.28 198.95,23.92zm-295.57 188.26l281.82 164.22 20.22 -35.33c23.05,-40.3 28.16,-86.22 17.82,-127.72 -10.34,-41.49 -36.11,-78.54 -74.82,-101.09 -38.71,-22.56 -83.38,-26.56 -124.15,-14.85 -40.78,11.71 -77.62,39.14 -100.67,79.44l-20.22 35.33zm231.29 252.56l-281.82 -164.22 -779.67 1363.01 281.82 164.22 779.67 -1363.01zm-856.22 1436.19l-229.78 -133.9 -21.96 306.18 251.74 -172.28z"/>
   <path class="fil2" d="M9502.14 15371.79c-28.82,0 -52.2,-23.59 -52.2,-52.68 0,-29.1 23.38,-52.69 52.2,-52.69l1154.47 0 -8.42 105.37 -1146.05 0zm0 -724.91c-28.82,0 -52.2,-23.59 -52.2,-52.68 0,-29.1 23.38,-52.69 52.2,-52.69l1377.35 0 -60.28 105.37 -1317.07 0zm0 357.81c-28.82,0 -52.2,-23.59 -52.2,-52.69 0,-29.09 23.38,-52.68 52.2,-52.68l1183.79 0 -8.42 105.37 -1175.37 0z"/>
  </g>
 </g>
</svg>
