<?xml version="1.0" encoding="UTF-8"?>
<!DOCTYPE svg PUBLIC "-//W3C//DTD SVG 1.1//EN" "http://www.w3.org/Graphics/SVG/1.1/DTD/svg11.dtd">
<!-- Creator: CorelDRAW SE (OEM-Version) -->
<svg xmlns="http://www.w3.org/2000/svg" xml:space="preserve" width="210mm" height="297mm" version="1.1" style="shape-rendering:geometricPrecision; text-rendering:geometricPrecision; image-rendering:optimizeQuality; fill-rule:evenodd; clip-rule:evenodd"
viewBox="0 0 21000 29700"
 xmlns:xlink="http://www.w3.org/1999/xlink"
 xmlns:xodm="http://www.corel.com/coreldraw/odm/2003">
 <defs>
  <style type="text/css">
   <![CDATA[
    .fil0 {fill:#115092}
    .fil1 {fill:#FEFEFE;fill-rule:nonzero}
    .fil2 {fill:#FEFEFE;fill-rule:nonzero}
   ]]>
  </style>
 </defs>
 <g id="Ebene_x0020_1">
  <metadata id="CorelCorpID_0Corel-Layer"/>
  <path class="fil0" d="M8626.51 12733.33l3746.99 0c134.28,0 243.17,108.89 243.17,243.17l0 3746.99c0,134.27 -108.89,243.16 -243.17,243.16l-3746.99 0.01c-134.27,-0.01 -243.16,-108.9 -243.16,-243.18l-0.01 -3746.98c0.01,-134.28 108.9,-243.17 243.18,-243.17z"/>
  <g id="_2449706087984">
   <path class="fil1" d="M9938.11 13396.08c550.2,0 996.23,446.03 996.23,996.23 0,550.2 -446.03,996.23 -996.23,996.23 -550.21,0 -996.24,-446.03 -996.24,-996.23 0,-550.2 446.03,-996.23 996.24,-996.23zm0 787.72c-115.16,0 -208.52,93.35 -208.52,208.51 0,115.16 93.36,208.52 208.52,208.52 115.15,0 208.51,-93.36 208.51,-208.52 0,-115.16 -93.36,-208.51 -208.51,-208.51zm787.67 204.89c-279.43,90.04 -481.62,352.15 -481.62,661.52 0,22.53 1.09,44.8 3.19,66.77 281.32,-120.21 478.47,-399.4 478.47,-724.67 0,-1.21 -0.04,-2.41 -0.04,-3.62zm-744.01 790.12c-93.3,-273.71 -352.55,-470.62 -657.84,-470.62 -35.41,0 -70.19,2.68 -104.17,7.8 123.48,273.61 398.67,464.04 718.35,464.04 14.65,0 29.2,-0.43 43.66,-1.22zm-680.11 -1250.65c-65.01,138.95 -4.6,314.68 190.46,202.06 263.82,-148.82 510.38,-189.06 747.17,-167.97 195.07,18.43 255.72,-123.75 134,-226.57 -124.68,-82.81 -274.29,-131.09 -435.18,-131.09 -261.49,0 -493.18,127.45 -636.45,323.57z"/>
   <path class="fil2" d="M12058.13 16303.93c-131.46,0 -262.74,0 -393.81,0 -131.08,0 -262.16,0 -393.24,0 -8.08,-204.35 -15.38,-389.39 -21.93,-555.32 -95.7,0 -191.24,0 -286.78,0 -8.53,165.93 -18.03,350.97 -28.53,555.32 -131.27,0 -262.36,0 -393.43,0 -131.08,0 -262.16,0 -393.04,0 101.69,-386.17 185.28,-703.74 254.99,-968.6 347.55,-171.45 586.69,-529.29 586.69,-943.02 0,-33.63 -1.65,-66.88 -4.74,-99.7l52.86 0c-2.16,42.24 -4.41,86.08 -6.79,132.34 55.49,0 110.97,0 166.54,0 -1.82,-46.26 -3.56,-90.1 -5.22,-132.34 60.06,0 120.11,0 180.18,0 60.06,0 120.21,0 180.45,0 42.52,169.35 94.42,375.5 158.99,632.36 83.02,330.24 193.33,768.93 346.81,1378.96zm-1077.48 -910.93c84.78,0 169.55,0 254.48,0 -5.21,-131.94 -9.96,-252.22 -14.31,-362.63 -73.93,0 -147.73,0 -221.54,0 -5.66,110.41 -11.85,230.69 -18.63,362.63zm29.83 -580.26c67.21,0 134.43,0 201.76,0 -3.44,-87.09 -6.61,-167.35 -9.55,-241.96 -60,0 -119.9,0 -179.79,0 -3.83,74.61 -7.95,154.87 -12.42,241.96z"/>
  </g>
 </g>
</svg>
