<?xml version="1.0" encoding="UTF-8"?>
<!DOCTYPE svg PUBLIC "-//W3C//DTD SVG 1.1//EN" "http://www.w3.org/Graphics/SVG/1.1/DTD/svg11.dtd">
<!-- Creator: CorelDRAW SE (OEM-Version) -->
<svg xmlns="http://www.w3.org/2000/svg" xml:space="preserve" width="210mm" height="297mm" version="1.1" style="shape-rendering:geometricPrecision; text-rendering:geometricPrecision; image-rendering:optimizeQuality; fill-rule:evenodd; clip-rule:evenodd"
viewBox="0 0 21000 29700"
 xmlns:xlink="http://www.w3.org/1999/xlink"
 xmlns:xodm="http://www.corel.com/coreldraw/odm/2003">
 <defs>
  <style type="text/css">
   <![CDATA[
    .fil0 {fill:#115092}
    .fil1 {fill:#FEFEFE;fill-rule:nonzero}
   ]]>
  </style>
 </defs>
 <g id="Ebene_x0020_1">
  <metadata id="CorelCorpID_0Corel-Layer"/>
  <path class="fil0" d="M8626.51 12733.33l3746.99 0c134.28,0 243.17,108.89 243.17,243.17l0 3746.99c0,134.27 -108.89,243.16 -243.17,243.16l-3746.99 0.01c-134.27,-0.01 -243.16,-108.9 -243.16,-243.18l-0.01 -3746.98c0.01,-134.28 108.9,-243.17 243.18,-243.17z"/>
  <g id="_2449706127216">
   <path class="fil1" d="M11631.9 16084.34l0 -1623.18 62.83 -29.83c86.66,-41.15 159.71,-106.21 210.58,-186.63 49.14,-77.69 77.59,-170.14 77.59,-269.59 0,-139.34 -56.47,-265.49 -147.78,-356.79 -88.55,-88.55 -209.87,-144.34 -344.2,-147.63l234.1 245.6 0.03 506.86 -509.07 0 -242.2 -254.1 -0.04 6.06c0,101.92 30.07,196.62 81.78,275.7 53.67,82.06 130.21,147.48 220.34,186.95l65.82 28.83 0 1617.75c0,39.79 16.37,76.05 42.71,102.4 26.35,26.35 62.62,42.71 102.4,42.71 39.79,0 76.05,-16.36 102.4,-42.71 26.35,-26.35 42.71,-62.61 42.71,-102.4zm218.84 -1489.28l0 1489.28c0,100.2 -40.91,191.23 -106.82,257.13 -65.9,65.91 -156.93,106.82 -257.13,106.82 -100.2,0 -191.22,-40.91 -257.13,-106.82 -65.9,-65.9 -106.82,-156.93 -106.82,-257.13l0 -1479.45c-101.17,-57.18 -187.1,-137.8 -250.26,-234.4 -74.41,-113.79 -117.68,-249.63 -117.68,-395.38 0,-47.17 4.65,-93.71 13.52,-139.14 9.04,-46.27 22.48,-90.93 39.83,-133.51l63.79 -156.5 436.9 458.34 198.11 0 -0.01 -200.33 -431.26 -452.42 157.66 -56.82c39.71,-14.3 80.08,-25.17 120.68,-32.23 40.81,-7.11 82.33,-10.81 124.2,-10.81 199.76,0 380.62,80.98 511.53,211.89 130.92,130.92 211.9,311.77 211.9,511.53 0,141.55 -40.99,273.91 -111.79,385.85 -60.38,95.45 -142.43,175.8 -239.22,234.1z"/>
   <path class="fil1" d="M9750.95 15370.57c38.62,38.62 62.51,92 62.51,150.95 0,58.95 -23.89,112.33 -62.51,150.95 -38.63,38.61 -92,62.51 -150.95,62.51 -58.95,0 -112.33,-23.9 -150.95,-62.51 -38.61,-38.62 -62.51,-92 -62.51,-150.95 0,-58.95 23.9,-112.33 62.51,-150.95 38.62,-38.62 92,-62.51 150.95,-62.51 58.95,0 112.32,23.89 150.95,62.51zm306.21 -10.84l939.82 0 0 218.85 -915.5 0c2.2,-18.72 3.33,-37.76 3.33,-57.06 0,-56.73 -9.75,-111.19 -27.65,-161.79zm573.1 -1272.15l-238.84 0c-114.39,0 -191.62,25.17 -247.45,64.41 -56.92,39.99 -97.36,98.37 -133.37,160.74l-0.86 1.72 -177.15 293.4 -696.46 187.6c-37.03,9.92 -67.09,29.82 -87.69,55.38 -20.04,24.87 -31.35,55.52 -31.35,87.55l0 361.89c0,7.5 10,20.11 24.68,32.96 17.91,15.66 39.66,26.5 58.91,26.5l42.16 0c-17.91,50.6 -27.66,105.06 -27.66,161.79 0,19.3 1.14,38.34 3.33,57.06l-17.83 0c-73.78,0 -147.64,-33.2 -202.52,-81.22 -59.44,-52.01 -99.91,-124.67 -99.91,-197.09l0 -361.89c0,-82.29 28.89,-160.8 80.07,-224.32 48.98,-60.78 118.12,-107.45 201.39,-129.76l611.15 -164.63 131.67 -218.07 0.1 0.06c49.12,-84.84 106.65,-165.78 195.68,-228.34 90.68,-63.72 208.44,-104.58 373.11,-104.58l238.84 0 0 218.84zm-1030.26 1003.83c-118.77,0 -226.31,48.15 -304.13,125.98 -77.83,77.82 -125.98,185.36 -125.98,304.13 0,118.77 48.15,226.3 125.98,304.13 77.82,77.83 185.36,125.97 304.13,125.97 118.77,0 226.3,-48.14 304.13,-125.97 77.83,-77.83 125.97,-185.36 125.97,-304.13 0,-118.77 -48.14,-226.31 -125.97,-304.13 -77.83,-77.83 -185.36,-125.98 -304.13,-125.98z"/>
  </g>
 </g>
</svg>
